<svg width="8" height="8" viewBox="0 0 8 8" fill="none" xmlns="http://www.w3.org/2000/svg">
<path d="M3.9965 0.666626C2.1565 0.666626 0.666504 2.15996 0.666504 3.99996C0.666504 5.83996 2.1565 7.33329 3.9965 7.33329C5.83984 7.33329 7.33317 5.83996 7.33317 3.99996C7.33317 2.15996 5.83984 0.666626 3.9965 0.666626ZM3.99984 6.66663C2.5265 6.66663 1.33317 5.47329 1.33317 3.99996C1.33317 2.52663 2.5265 1.33329 3.99984 1.33329C5.47317 1.33329 6.6665 2.52663 6.6665 3.99996C6.6665 5.47329 5.47317 6.66663 3.99984 6.66663Z" fill="#7D7D7D"/>
<path d="M4.1665 2.33337H3.6665V4.33337L5.4165 5.38337L5.6665 4.97337L4.1665 4.08337V2.33337Z" fill="#7D7D7D"/>
</svg>
