<svg width="7" height="7" viewBox="0 0 7 7" fill="none" xmlns="http://www.w3.org/2000/svg">
<path d="M1.53125 0C1.58927 0 1.64491 0.0230468 1.68593 0.0640704C1.72695 0.105094 1.75 0.160734 1.75 0.21875V0.4375H5.25V0.21875C5.25 0.160734 5.27305 0.105094 5.31407 0.0640704C5.35509 0.0230468 5.41073 0 5.46875 0C5.52677 0 5.58241 0.0230468 5.62343 0.0640704C5.66445 0.105094 5.6875 0.160734 5.6875 0.21875V0.4375H6.125C6.35706 0.4375 6.57962 0.529687 6.74372 0.693782C6.90781 0.857876 7 1.08044 7 1.3125V6.125C7 6.35706 6.90781 6.57962 6.74372 6.74372C6.57962 6.90781 6.35706 7 6.125 7H0.875C0.642936 7 0.420376 6.90781 0.256282 6.74372C0.0921872 6.57962 0 6.35706 0 6.125V1.3125C0 1.08044 0.0921872 0.857876 0.256282 0.693782C0.420376 0.529687 0.642936 0.4375 0.875 0.4375H1.3125V0.21875C1.3125 0.160734 1.33555 0.105094 1.37657 0.0640704C1.41759 0.0230468 1.47323 0 1.53125 0V0ZM0.4375 1.75V6.125C0.4375 6.24103 0.483594 6.35231 0.565641 6.43436C0.647688 6.51641 0.758968 6.5625 0.875 6.5625H6.125C6.24103 6.5625 6.35231 6.51641 6.43436 6.43436C6.51641 6.35231 6.5625 6.24103 6.5625 6.125V1.75H0.4375Z" fill="#7D7D7D"/>
</svg>
