<svg width="5" height="6" viewBox="0 0 5 6" fill="none" xmlns="http://www.w3.org/2000/svg">
<path fill-rule="evenodd" clip-rule="evenodd" d="M0.104897 0.0677892C0.0716461 0.0892232 0.0452654 0.114686 0.0272654 0.142719C0.00926535 0.170752 -4.03146e-08 0.200804 -4.03146e-08 0.231155C-4.03146e-08 0.261505 0.00926535 0.291558 0.0272654 0.319591C0.0452654 0.347624 0.0716461 0.373086 0.104897 0.39452L4.13744 3.00006L0.104897 5.6056C0.0378523 5.64893 0.000187241 5.70769 0.000187241 5.76897C0.000187241 5.83024 0.0378523 5.889 0.104897 5.93233C0.171942 5.97566 0.262874 6 0.35769 6C0.452505 6 0.543438 5.97566 0.610482 5.93233L4.8951 3.16343C4.92835 3.14199 4.95473 3.11653 4.97273 3.0885C4.99073 3.06046 5 3.03041 5 3.00006C5 2.96971 4.99073 2.93966 4.97273 2.91162C4.95473 2.88359 4.92835 2.85813 4.8951 2.8367L0.610482 0.0677892C0.577315 0.046301 0.537914 0.0292525 0.494536 0.0176201C0.451157 0.00598769 0.404654 0 0.35769 0C0.310725 0 0.264222 0.00598769 0.220844 0.0176201C0.177466 0.0292525 0.138064 0.046301 0.104897 0.0677892V0.0677892Z" fill="#7D7D7D"/>
</svg>
