<svg width="10" height="10" viewBox="0 0 10 10" fill="none" xmlns="http://www.w3.org/2000/svg">
<path d="M8.82509 5.4875C8.84438 5.33125 8.85723 5.16875 8.85723 5C8.85723 4.83125 8.84438 4.66875 8.81866 4.5125L9.90512 3.6875C10.0015 3.6125 10.0273 3.475 9.9694 3.36875L8.94081 1.6375C8.87652 1.525 8.74152 1.4875 8.6258 1.525L7.34648 2.025C7.07648 1.825 6.79361 1.6625 6.47861 1.5375L6.28575 0.2125C6.26646 0.0874999 6.15717 0 6.0286 0H3.9714C3.84283 0 3.73997 0.0874999 3.72068 0.2125L3.52782 1.5375C3.21282 1.6625 2.92352 1.83125 2.65995 2.025L1.38063 1.525C1.26491 1.48125 1.12991 1.525 1.06562 1.6375L0.0370265 3.36875C-0.0272608 3.48125 -0.00154579 3.6125 0.101314 3.6875L1.18777 4.5125C1.16205 4.66875 1.14277 4.8375 1.14277 5C1.14277 5.1625 1.15562 5.33125 1.18134 5.4875L0.0948849 6.3125C-0.00154595 6.3875 -0.0272608 6.525 0.0305977 6.63125L1.05919 8.3625C1.12348 8.475 1.25848 8.5125 1.3742 8.475L2.65352 7.975C2.92352 8.175 3.20639 8.3375 3.52139 8.4625L3.71426 9.7875C3.73997 9.9125 3.84283 10 3.9714 10H6.0286C6.15717 10 6.26646 9.9125 6.27932 9.7875L6.47218 8.4625C6.78719 8.3375 7.07648 8.16875 7.34006 7.975L8.61937 8.475C8.73509 8.51875 8.87009 8.475 8.93438 8.3625L9.96297 6.63125C10.0273 6.51875 10.0015 6.3875 9.89869 6.3125L8.82509 5.4875ZM5 6.875C3.93926 6.875 3.07138 6.03125 3.07138 5C3.07138 3.96875 3.93926 3.125 5 3.125C6.06074 3.125 6.92862 3.96875 6.92862 5C6.92862 6.03125 6.06074 6.875 5 6.875Z" fill="#87DCD7"/>
</svg>
