<svg width="7" height="7" viewBox="0 0 7 7" fill="none" xmlns="http://www.w3.org/2000/svg">
<path d="M0.200469 5H4.29953C4.32586 5.00002 4.35194 4.99485 4.37627 4.98478C4.4006 4.97472 4.42271 4.95995 4.44133 4.94133C4.45995 4.92271 4.47472 4.9006 4.48478 4.87627C4.49485 4.85194 4.50002 4.82586 4.5 4.79953V4.20047C4.50002 4.17414 4.49485 4.14806 4.48478 4.12373C4.47472 4.0994 4.45995 4.07729 4.44133 4.05867C4.42271 4.04005 4.4006 4.02528 4.37627 4.01522C4.35194 4.00515 4.32586 3.99998 4.29953 4H0.200469C0.174137 3.99998 0.14806 4.00515 0.123728 4.01522C0.0993972 4.02528 0.0772895 4.04005 0.0586702 4.05867C0.0400508 4.07729 0.0252852 4.0994 0.015218 4.12373C0.00515077 4.14806 -2.04866e-05 4.17414 6.09931e-08 4.20047V4.79953C-2.04866e-05 4.82586 0.00515077 4.85194 0.015218 4.87627C0.0252852 4.9006 0.0400508 4.92271 0.0586702 4.94133C0.0772895 4.95995 0.0993972 4.97472 0.123728 4.98478C0.14806 4.99485 0.174137 5.00002 0.200469 5V5ZM0.200469 1H4.29953C4.32586 1.00002 4.35194 0.994849 4.37627 0.984782C4.4006 0.974715 4.42271 0.959949 4.44133 0.94133C4.45995 0.922711 4.47472 0.900603 4.48478 0.876272C4.49485 0.85194 4.50002 0.825863 4.5 0.799531V0.200469C4.50002 0.174137 4.49485 0.14806 4.48478 0.123728C4.47472 0.0993972 4.45995 0.0772895 4.44133 0.0586702C4.42271 0.0400508 4.4006 0.0252852 4.37627 0.015218C4.35194 0.00515074 4.32586 -2.04866e-05 4.29953 6.09934e-08H0.200469C0.174137 -2.04866e-05 0.14806 0.00515074 0.123728 0.015218C0.0993972 0.0252852 0.0772895 0.0400508 0.0586702 0.0586702C0.0400508 0.0772895 0.0252852 0.0993972 0.015218 0.123728C0.00515077 0.14806 -2.04866e-05 0.174137 6.09931e-08 0.200469V0.799531C-2.04866e-05 0.825863 0.00515077 0.85194 0.015218 0.876272C0.0252852 0.900603 0.0400508 0.922711 0.0586702 0.94133C0.0772895 0.959949 0.0993972 0.974715 0.123728 0.984782C0.14806 0.994849 0.174137 1.00002 0.200469 1V1ZM6.75 2H0.25C0.183696 2 0.120107 2.02634 0.0732234 2.07322C0.0263393 2.12011 6.09931e-08 2.1837 6.09931e-08 2.25V2.75C6.09931e-08 2.8163 0.0263393 2.87989 0.0732234 2.92678C0.120107 2.97366 0.183696 3 0.25 3H6.75C6.8163 3 6.87989 2.97366 6.92678 2.92678C6.97366 2.87989 7 2.8163 7 2.75V2.25C7 2.1837 6.97366 2.12011 6.92678 2.07322C6.87989 2.02634 6.8163 2 6.75 2ZM6.75 6H0.25C0.183696 6 0.120107 6.02634 0.0732234 6.07322C0.0263393 6.12011 6.09931e-08 6.1837 6.09931e-08 6.25V6.75C6.09931e-08 6.8163 0.0263393 6.87989 0.0732234 6.92678C0.120107 6.97366 0.183696 7 0.25 7H6.75C6.8163 7 6.87989 6.97366 6.92678 6.92678C6.97366 6.87989 7 6.8163 7 6.75V6.25C7 6.1837 6.97366 6.12011 6.92678 6.07322C6.87989 6.02634 6.8163 6 6.75 6Z" fill="#7D7D7D"/>
</svg>
