<svg width="13" height="8" viewBox="0 0 13 8" fill="none" xmlns="http://www.w3.org/2000/svg">
<path d="M11.6668 1.33332V3.33332H2.88682L4.80682 1.41332C5.06682 1.15332 5.06682 0.73332 4.80682 0.47332C4.54682 0.21332 4.12682 0.21332 3.86682 0.47332L0.806816 3.53332C0.546816 3.79332 0.546816 4.21332 0.806816 4.47332L3.86682 7.53332C4.12682 7.79332 4.54682 7.79332 4.80682 7.53332C5.06682 7.27332 5.06682 6.85332 4.80682 6.59332L2.88682 4.66665H12.3335C12.7001 4.66665 13.0001 4.36665 13.0001 3.99999V1.33332C13.0001 0.966654 12.7001 0.666654 12.3335 0.666654C11.9668 0.666654 11.6668 0.966654 11.6668 1.33332Z" fill="#7D7D7D" fill-opacity="0.6"/>
</svg>