<svg width="5" height="6" viewBox="0 0 5 6" fill="none" xmlns="http://www.w3.org/2000/svg">
<path fill-rule="evenodd" clip-rule="evenodd" d="M4.8951 5.93221C4.92835 5.91078 4.95473 5.88531 4.97273 5.85728C4.99073 5.82925 5 5.7992 5 5.76885C5 5.73849 4.99073 5.70844 4.97273 5.68041C4.95473 5.65238 4.92835 5.62691 4.8951 5.60548L0.862561 2.99994L4.8951 0.394399C4.96215 0.351071 4.99981 0.292307 4.99981 0.231033C4.99981 0.169759 4.96215 0.110995 4.8951 0.067668C4.82806 0.0243407 4.73713 0 4.64231 0C4.54749 0 4.45656 0.0243407 4.38952 0.067668L0.104897 2.83657C0.0716462 2.85801 0.0452651 2.88347 0.0272651 2.9115C0.00926505 2.93954 0 2.96959 0 2.99994C0 3.03029 0.00926505 3.06034 0.0272651 3.08838C0.0452651 3.11641 0.0716462 3.14187 0.104897 3.1633L4.38952 5.93221C4.42268 5.9537 4.46209 5.97075 4.50546 5.98238C4.54884 5.99401 4.59535 6 4.64231 6C4.68927 6 4.73578 5.99401 4.77916 5.98238C4.82253 5.97075 4.86194 5.9537 4.8951 5.93221V5.93221Z" fill="#7D7D7D"/>
</svg>
