<svg width="7" height="7" viewBox="0 0 7 7" fill="none" xmlns="http://www.w3.org/2000/svg">
<path fill-rule="evenodd" clip-rule="evenodd" d="M0.65625 5.6875C0.65625 5.86155 0.72539 6.02847 0.848461 6.15154C0.971532 6.27461 1.13845 6.34375 1.3125 6.34375H4.8125C4.98655 6.34375 5.15347 6.27461 5.27654 6.15154C5.39961 6.02847 5.46875 5.86155 5.46875 5.6875V3.9375C5.46875 3.87948 5.4457 3.82384 5.40468 3.78282C5.36366 3.7418 5.30802 3.71875 5.25 3.71875C5.19198 3.71875 5.13634 3.7418 5.09532 3.78282C5.0543 3.82384 5.03125 3.87948 5.03125 3.9375V5.6875C5.03125 5.74552 5.0082 5.80116 4.96718 5.84218C4.92616 5.8832 4.87052 5.90625 4.8125 5.90625H1.3125C1.25448 5.90625 1.19884 5.8832 1.15782 5.84218C1.1168 5.80116 1.09375 5.74552 1.09375 5.6875V2.1875C1.09375 2.12948 1.1168 2.07384 1.15782 2.03282C1.19884 1.9918 1.25448 1.96875 1.3125 1.96875H3.0625C3.12052 1.96875 3.17616 1.9457 3.21718 1.90468C3.2582 1.86366 3.28125 1.80802 3.28125 1.75C3.28125 1.69198 3.2582 1.63634 3.21718 1.59532C3.17616 1.5543 3.12052 1.53125 3.0625 1.53125H1.3125C1.13845 1.53125 0.971532 1.60039 0.848461 1.72346C0.72539 1.84653 0.65625 2.01345 0.65625 2.1875V5.6875ZM3.71875 0.875C3.71875 0.816984 3.7418 0.761344 3.78282 0.72032C3.82384 0.679297 3.87948 0.65625 3.9375 0.65625H6.125C6.18302 0.65625 6.23866 0.679297 6.27968 0.72032C6.3207 0.761344 6.34375 0.816984 6.34375 0.875V3.0625C6.34375 3.12052 6.3207 3.17616 6.27968 3.21718C6.23866 3.2582 6.18302 3.28125 6.125 3.28125C6.06698 3.28125 6.01134 3.2582 5.97032 3.21718C5.9293 3.17616 5.90625 3.12052 5.90625 3.0625V1.09375H3.9375C3.87948 1.09375 3.82384 1.0707 3.78282 1.02968C3.7418 0.988656 3.71875 0.933016 3.71875 0.875Z" fill="#7D7D7D"/>
<path fill-rule="evenodd" clip-rule="evenodd" d="M6.27967 0.72015C6.30004 0.74047 6.3162 0.764609 6.32723 0.791185C6.33826 0.817761 6.34393 0.846252 6.34393 0.875025C6.34393 0.903798 6.33826 0.932289 6.32723 0.958865C6.3162 0.985441 6.30004 1.00958 6.27967 1.0299L2.77966 4.5299C2.75933 4.55024 2.73518 4.56637 2.70861 4.57738C2.68203 4.58839 2.65355 4.59405 2.62479 4.59405C2.59603 4.59405 2.56754 4.58839 2.54097 4.57738C2.5144 4.56637 2.49025 4.55024 2.46991 4.5299C2.44957 4.50956 2.43344 4.48542 2.42243 4.45884C2.41143 4.43227 2.40576 4.40379 2.40576 4.37502C2.40576 4.34626 2.41143 4.31778 2.42243 4.29121C2.43344 4.26463 2.44957 4.24049 2.46991 4.22015L5.96992 0.72015C5.99024 0.699778 6.01438 0.683616 6.04095 0.672588C6.06753 0.66156 6.09602 0.655884 6.12479 0.655884C6.15357 0.655884 6.18206 0.66156 6.20863 0.672588C6.23521 0.683616 6.25935 0.699778 6.27967 0.72015V0.72015Z" fill="#7D7D7D"/>
</svg>
